<svg xmlns="http://www.w3.org/2000/svg" viewBox="1248 2187.712 281.587 194.579">
  <defs>
    <style>
      .cls-1 {
        fill: #11113f;
      }
    </style>
  </defs>
  <g id="Group_43" data-name="Group 43" transform="translate(1248 2187.712)">
    <path id="Path_72" data-name="Path 72" class="cls-1" d="M275.216,169.041H36.956V4.4c0-2.431-2.853-4.4-6.371-4.4s-6.37,1.971-6.37,4.4V169.041H6.371c-3.518,0-6.371,1.971-6.371,4.4s2.853,4.4,6.371,4.4H24.215v12.33c0,2.431,2.853,4.4,6.371,4.4s6.371-1.971,6.371-4.4v-12.33h238.26c3.518,0,6.371-1.971,6.371-4.4S278.734,169.041,275.216,169.041Z"/>
    <path id="Path_73" data-name="Path 73" class="cls-1" d="M300.349,34.906c-11.953,0-21.677,6.719-21.677,14.979,0,4.258,2.589,8.1,6.732,10.834L240.8,124.973a31.374,31.374,0,0,0-3.218-.166,27.714,27.714,0,0,0-14.362,3.773l-27.4-11.542a10.637,10.637,0,0,0,.668-3.694c0-8.259-9.724-14.979-21.677-14.979s-21.677,6.719-21.677,14.979a11.909,11.909,0,0,0,3.589,8.242L119.46,152.825a30.361,30.361,0,0,0-7.421-.9c-11.953,0-21.677,6.719-21.677,14.979s9.724,14.979,21.677,14.979,21.677-6.719,21.677-14.979a12.139,12.139,0,0,0-4.1-8.748l36.931-30.96a30.107,30.107,0,0,0,8.26,1.132,27.714,27.714,0,0,0,14.362-3.773l27.4,11.542a10.637,10.637,0,0,0-.668,3.694c0,8.259,9.724,14.979,21.677,14.979s21.677-6.719,21.677-14.979c0-4.342-2.69-8.257-6.976-11L296.8,64.66a31.2,31.2,0,0,0,3.548.2c11.953,0,21.677-6.719,21.677-14.979S312.3,34.906,300.349,34.906ZM112.04,173.073c-4.927,0-8.935-2.77-8.935-6.174s4.008-6.174,8.935-6.174,8.935,2.77,8.935,6.174S116.967,173.073,112.04,173.073Zm62.77-53.554c-4.927,0-8.935-2.77-8.935-6.174s4.008-6.174,8.935-6.174,8.935,2.77,8.935,6.174S179.737,119.519,174.81,119.519Zm62.769,26.441c-4.927,0-8.935-2.77-8.935-6.174s4.008-6.174,8.935-6.174,8.935,2.77,8.935,6.174S242.506,145.96,237.579,145.96Zm62.77-89.9c-4.927,0-8.935-2.77-8.935-6.174s4.008-6.174,8.935-6.174,8.935,2.77,8.935,6.174S305.276,56.059,300.349,56.059Z" transform="translate(-40.666 -21.64)"/>
  </g>
</svg>
