<svg xmlns="http://www.w3.org/2000/svg" viewBox="134.329 238 460.803 115.586">
  <g id="Group_20" data-name="Group 20" transform="translate(-20 -9)">
    <g id="Group_18" data-name="Group 18" transform="translate(154.329 247)">
      <g id="goofy" transform="translate(0 0.743)">
        <g id="Group_17" data-name="Group 17">
          <path id="Path_1" data-name="Path 1" d="M153.05,278.586h8.69v6.838a12.969,12.969,0,0,0,25.938,0v-6.838h8.69v-7.178H153.05Zm27.408,6.838a5.75,5.75,0,0,1-11.5,0v-6.838h11.5v6.838Z" transform="translate(-116.97 -207.798)"/>
          <ellipse id="Ellipse_1" data-name="Ellipse 1" cx="10.052" cy="9.994" rx="10.052" ry="9.994" transform="translate(29.014 31.07)"/>
          <path id="Path_2" data-name="Path 2" d="M284.922,119.719l-20.153,13.006,20.157,13,3.927-6.021-10.822-6.981,10.826-6.985Z" transform="translate(-202.353 -91.66)"/>
          <path id="Path_3" data-name="Path 3" d="M99.225,0H16.286A16.26,16.26,0,0,0,0,16.192V98.651a16.26,16.26,0,0,0,16.286,16.192H99.226A16.26,16.26,0,0,0,115.512,98.65V16.192A16.26,16.26,0,0,0,99.225,0Zm9.067,98.65a9.052,9.052,0,0,1-9.067,9.014H16.286A9.052,9.052,0,0,1,7.219,98.65V16.192a9.052,9.052,0,0,1,9.067-9.014H99.226a9.052,9.052,0,0,1,9.067,9.014V98.65Z"/>
        </g>
      </g>
      <g id="shocked-1" transform="translate(172.557 0.743)">
        <ellipse id="Ellipse_2" data-name="Ellipse 2" cx="10.052" cy="9.994" rx="10.052" ry="9.994" transform="translate(27.112 31.089)"/>
        <ellipse id="Ellipse_3" data-name="Ellipse 3" cx="10.052" cy="9.994" rx="10.052" ry="9.994" transform="translate(68.295 31.089)"/>
        <ellipse id="Ellipse_4" data-name="Ellipse 4" cx="15.155" cy="15.068" rx="15.155" ry="15.068" transform="translate(43.087 63.285)"/>
        <path id="Path_4" data-name="Path 4" d="M99.225,0H16.286A16.259,16.259,0,0,0,0,16.192V98.651a16.26,16.26,0,0,0,16.286,16.192H99.225a16.26,16.26,0,0,0,16.286-16.192V16.192A16.259,16.259,0,0,0,99.225,0Zm9.067,98.651a9.052,9.052,0,0,1-9.067,9.014H16.286a9.052,9.052,0,0,1-9.067-9.014V16.192a9.052,9.052,0,0,1,9.067-9.014H99.225a9.052,9.052,0,0,1,9.067,9.014V98.651Z" transform="translate(0 0)"/>
      </g>
      <g id="Group_16" data-name="Group 16" transform="translate(345.293)">
        <g id="giggle" transform="translate(0)">
          <path id="Path_15" data-name="Path 15" d="M93.984,193.164a17.191,17.191,0,0,0-17.22,17.162H111.2A17.191,17.191,0,0,0,93.984,193.164Z" transform="translate(-58.668 -147.781)"/>
          <path id="Path_16" data-name="Path 16" d="M284.363,193.164a17.191,17.191,0,0,0-17.22,17.162h34.439A17.191,17.191,0,0,0,284.363,193.164Z" transform="translate(-204.168 -147.781)"/>
          <path id="Path_17" data-name="Path 17" d="M16.286,115.123H99.225A16.279,16.279,0,0,0,115.51,98.892V16.231A16.279,16.279,0,0,0,99.224,0H16.286A16.279,16.279,0,0,0,0,16.231V98.892A16.279,16.279,0,0,0,16.286,115.123ZM7.219,16.231A9.063,9.063,0,0,1,16.286,7.2H99.225a9.063,9.063,0,0,1,9.067,9.036V98.892a9.063,9.063,0,0,1-9.067,9.036H16.286a9.063,9.063,0,0,1-9.067-9.036Z"/>
        </g>
      </g>
    </g>
  </g>
</svg>
