<svg xmlns="http://www.w3.org/2000/svg" viewBox="184.912 2008.679 98.365 116.685">
  <g id="happy-3" transform="translate(184.912 2008.679)">
    <path id="Path_9" data-name="Path 9" d="M156.755,305.4c12.241,0,22.164-11.771,22.164-26.292H134.591C134.591,293.63,144.514,305.4,156.755,305.4Zm14.789-19c-2.416,6.867-8.135,11.706-14.789,11.706s-12.374-4.839-14.789-11.706Z" transform="translate(-107.572 -212.644)"/>
    <ellipse id="Ellipse_7" data-name="Ellipse 7" cx="8.56" cy="10.154" rx="8.56" ry="10.154" transform="translate(23.087 31.589)"/>
    <ellipse id="Ellipse_8" data-name="Ellipse 8" cx="8.56" cy="10.154" rx="8.56" ry="10.154" transform="translate(58.157 31.588)"/>
    <path id="Path_10" data-name="Path 10" d="M84.5,0H13.869C6.223,0,0,7.382,0,16.452v83.782c0,9.069,6.223,16.451,13.869,16.451H84.5c7.646,0,13.868-7.382,13.868-16.452V16.452C98.365,7.382,92.142,0,84.5,0Zm7.721,100.233c0,5.049-3.464,9.159-7.721,9.159H13.869c-4.257,0-7.721-4.109-7.721-9.159V16.452c0-5.049,3.464-9.159,7.721-9.159H84.5c4.257,0,7.721,4.109,7.721,9.159v83.782Z" transform="translate(0 0)"/>
  </g>
</svg>
