<svg xmlns="http://www.w3.org/2000/svg" viewBox="401.821 2008.64 98.365 116.685">
  <g id="sad-4" transform="translate(401.821 2008.64)">
    <path id="Path_11" data-name="Path 11" d="M125.446,313.862c.882-.776,21.836-18.791,43.077,0l3.674-5.847c-24.972-22.1-50.179-.217-50.431,0Z" transform="translate(-97.322 -227.147)"/>
    <path id="Path_12" data-name="Path 12" d="M120.866,152.675l5.677-6.734,5.676,6.734,4.347-5.156-5.677-6.734,5.677-6.735-4.347-5.156-5.676,6.734-5.677-6.734-4.347,5.156,5.677,6.735-5.677,6.734Z" transform="translate(-93.128 -98.199)"/>
    <path id="Path_13" data-name="Path 13" d="M277.968,152.675l5.676-6.734,5.677,6.734,4.346-5.156-5.677-6.734,5.677-6.735-4.346-5.156-5.677,6.734-5.676-6.734-4.347,5.156,5.677,6.735-5.677,6.734Z" transform="translate(-218.693 -98.199)"/>
    <path id="Path_14" data-name="Path 14" d="M13.869,116.685H84.5c7.646,0,13.868-7.382,13.868-16.452V16.452C98.365,7.38,92.142,0,84.5,0H13.869C6.223,0,0,7.38,0,16.452v83.782C0,109.3,6.223,116.685,13.869,116.685ZM6.148,16.452c0-5.049,3.464-9.159,7.721-9.159H84.5c4.257,0,7.721,4.109,7.721,9.159v83.782c0,5.049-3.464,9.159-7.721,9.159H13.869c-4.257,0-7.721-4.109-7.721-9.159Z"/>
  </g>
</svg>
